<?xml version="1.0" encoding="UTF-8"?>
<svg width="425px" height="192px" viewBox="0 0 425 192" version="1.1" xmlns="http://www.w3.org/2000/svg" xmlns:xlink="http://www.w3.org/1999/xlink">
    <title>overleaf-a-ds-solution-mallard copy</title>
    <g id="overleaf-a-ds-solution-mallard-copy" stroke="none" fill="none" fill-rule="evenodd">
        <path d="M30.732604,8.52710456 C31.6114893,3.98888148 37.6755136,1.03445348 38.8957135,4.54949804 L44.7634818,21.4461545 C45.6878757,24.1085503 47.2913437,26.2110401 49.4366487,27.6385162 C43.8746415,31.7724417 38.5551099,36.2140312 33.5043637,41.0023646 C30.9573029,43.4587036 28.4287299,45.9548329 26.0907243,48.6825985 C23.6887223,51.4942078 21.1957029,54.4692414 19.8901743,58.0056022 C15.0093743,70.7740176 20.1326499,86.000193 30.7574916,94.2453066 C38.2770807,102.952272 52.7324686,103.510046 60.5855506,93.7934028 L53.9455579,91.7100976 C51.8045193,89.0953081 53.1143144,85.1425705 56.3944907,84.3211855 L64.9437125,82.179616 C64.9794866,81.1345289 64.9437125,78.4485337 64.1487337,75.7378545 C58.4644221,66.112871 57.1681373,51.7116332 62.9391998,47.8512659 C69.7498498,43.2959898 82.8207801,51.3570734 89.2289632,60.9237926 C89.8305304,62.1729231 90.3074228,63.0937838 90.6596406,63.6863747 C93.291319,68.5308408 94.4340122,74.094374 94.9075863,79.5442207 C95.0384236,81.2118596 95.0654443,82.8674193 95.0114028,84.5080577 L101.162889,90.9924516 C103.426232,93.378447 102.367445,97.3716855 99.1825527,98.4588126 L92.858276,96.8444643 C87.4391944,113.649461 72.467568,126.757515 54.0657291,128.69658 C24.404772,132.130623 -1.7377995,105.898173 3.72821294,76.2196011 C5.09617721,69.429536 8.33025905,63.7612207 11.6772509,58.1758736 L12.3955527,56.9799049 C13.7132651,54.7882357 15.0290762,52.59792 16.236685,50.3459741 C20.7377724,41.9523575 23.8650682,36.1429772 26.8295284,28.6872742 Z M50.1572284,27.8789809 C51.3111495,28.5336519 52.6023402,29.0113849 54.0143565,29.2944859 L72.4513574,32.9896616 C76.1004365,33.7214777 74.0142271,40.0877114 69.6330443,41.5902699 L49.0361946,48.6550553 L49.0247555,48.6451467 C39.5367208,53.4472474 30.4676439,60.1829278 27.5113464,70.0843852 C26.555465,73.3011203 26.1808338,76.424432 26.0600081,79.1655574 C26.0414196,79.4606902 26.0278356,79.752992 26.0178264,80.044586 C25.7082552,79.3998235 25.4179876,78.7444447 25.1563177,78.0770341 C22.8148729,72.2133047 22.2214686,65.3856164 24.3412804,59.4256327 C25.4351462,56.3462016 27.4505761,53.771398 29.3830724,51.1307735 C31.4585576,48.4193737 33.6763169,45.7546856 35.9805845,43.1579417 C40.5497978,37.9439291 45.3399291,32.8877453 50.1572284,27.8789809 Z M132.080386,104.039024 L140.051355,104.039024 C142.880131,104.039024 145.173307,101.745849 145.173307,98.9170732 L145.173307,73.411704 L145.173307,73.411704 L173.861729,73.411704 L173.861729,98.9170732 C173.861729,101.745849 176.154905,104.039024 178.98368,104.039024 L186.95465,104.039024 C189.783425,104.039024 192.076601,101.745849 192.076601,98.9170732 L192.076601,33.7317073 C192.076601,30.9029318 189.783425,28.6097561 186.95465,28.6097561 L178.98368,28.6097561 C176.154905,28.6097561 173.861729,30.9029318 173.861729,33.7317073 L173.861729,57.920861 L173.861729,57.920861 L145.173307,57.920861 L145.173307,33.7317073 C145.173307,30.9029318 142.880131,28.6097561 140.051355,28.6097561 L132.080386,28.6097561 C129.251611,28.6097561 126.958435,30.9029318 126.958435,33.7317073 L126.958435,98.9170732 C126.958435,101.745849 129.251611,104.039024 132.080386,104.039024 Z M216.678868,104.841463 C224.158028,104.841463 228.926619,102.216895 232.088948,96.4630344 L232.289731,96.4630344 L232.289731,98.8110078 C232.289731,101.639783 234.582907,103.932959 237.411682,103.932959 L244.033535,103.932959 C246.862311,103.932959 249.155487,101.639783 249.155487,98.8110078 L249.155487,68.0470374 L249.155487,68.0470374 C249.155487,56.2869533 240.672413,49.4731707 225.262333,49.4731707 C209.902449,49.4731707 201.218592,56.3374258 200.465657,67.89562 L216.528281,67.89562 C216.879651,64.2616026 219.841197,61.9398693 224.659985,61.9398693 C229.227793,61.9398693 232.038753,64.1101852 232.038753,67.2899504 L232.038753,67.5423127 C232.038753,70.722078 228.575249,71.4791649 219.088262,72.2867243 C207.794229,73.1952287 198.508024,77.0816084 198.508024,89.0435823 C198.508024,99.6427997 206.087575,104.841463 216.678868,104.841463 Z M221.949417,93.4851591 C217.732978,93.4851591 214.871823,91.516733 214.871823,88.2360229 C214.871823,84.7534229 218.184739,82.8354692 222.802744,82.1288547 C227.069378,81.4222403 230.332099,80.7660982 232.18934,79.9080663 L232.18934,84.7534229 C232.18934,90.0025591 227.721922,93.4851591 221.949417,93.4851591 Z M272.171014,52.6829268 C274.99979,52.6829268 277.292965,54.9761025 277.292965,57.804878 L277.292965,107.064859 C277.292965,118.654247 270.67329,124.902439 257.637621,124.902439 L255.885294,124.902439 C253.056518,124.902439 250.763343,122.609263 250.763343,119.780488 L250.763343,115.013112 C250.763343,113.044526 252.359197,111.448671 254.327783,111.448671 C258.146827,111.448671 259.725365,109.685069 259.725365,105.301257 L259.725365,57.804878 C259.725365,54.9761025 262.018541,52.6829268 264.847316,52.6829268 L272.171014,52.6829268 Z M375.585431,29.4121951 L382.792168,40.7412137 C385.060023,44.3161485 387.227084,47.9414344 389.343748,51.5163692 C391.561205,47.9414344 393.778663,44.3161485 396.096914,40.7412137 L403.404446,29.4121951 L415.154892,29.4121951 C416.020371,29.4121951 416.866725,29.6665841 417.588544,30.1436786 C419.62021,31.4865319 420.177618,34.2206311 418.833549,36.25046 L399.423101,65.5643522 L421.234322,97.5473108 C421.733189,98.2788264 422,99.1434857 422,100.02866 C422,102.462476 420.025217,104.435474 417.589198,104.435474 L404.916349,104.435474 L395.492153,89.9846812 C394.081044,87.7692287 392.031575,84.4339944 389.343748,79.9789785 C380.171536,97.0889278 363.482857,105.643902 339.277709,105.643902 C322.949365,105.643902 311.861868,94.0631279 311.861868,77.8500435 C311.861868,61.6369591 321.285629,50.0561846 337.059817,50.0561846 C353.035592,50.0561846 361.426003,61.334852 361.426003,77.4472339 L361.422093,77.6402529 C361.320777,80.1369108 359.262894,82.129895 356.739103,82.129895 L327.030861,82.129895 C327.232448,88.8769549 332.425381,92.0434418 339.277709,92.0434418 C357.713192,92.0434418 371.388998,83.6702394 380.305127,66.9238345 L359.618203,36.2553151 C359.138625,35.5331276 358.882838,34.6856884 358.882838,33.8190089 C358.882838,31.3851928 360.857621,29.4121951 363.29364,29.4121951 L375.585431,29.4121951 Z M326.034188,28.6097561 C328.862964,28.6097561 331.156139,30.9029318 331.156139,33.7317073 L331.156139,38.9786479 C331.156139,41.8074234 328.862964,44.1005991 326.034188,44.1005991 L304.527455,44.1005991 L304.527455,98.9170732 C304.527455,101.745849 302.234279,104.039024 299.405503,104.039024 L291.407857,104.039024 C288.579082,104.039024 286.285906,101.745849 286.285906,98.9170732 L286.285906,44.1005991 L264.728501,44.1005991 C261.899726,44.1005991 259.60655,41.8074234 259.60655,38.9786479 L259.60655,33.7317073 C259.60655,30.9029318 261.899726,28.6097561 264.728501,28.6097561 L326.034188,28.6097561 Z M337.513388,62.8453878 C331.667363,62.8453878 327.887606,66.1685665 327.131654,71.7575491 L347.895122,71.7575491 C347.139171,66.1685665 343.309016,62.8453878 337.513388,62.8453878 Z" id="Combined-Shape-Copy" fill="#04B5A9"></path>
        <g id="Group" stroke-width="1" transform="translate(14, 140)">
            <g transform="translate(149, 0)">
                <g id="Group" transform="translate(1.9575, 0)">
                    <polygon id="Right" fill="#F49422" fill-rule="nonzero" points="36.1747565 11.40625 36.1747565 30.4612325 19.183583 40 19.183583 20.9459196"></polygon>
                    <path d="M16.9911735,20.9456186 L16.9911735,40 L0,30.4606314 L0,11.40625 C0.334400755,11.5938801 4.14928072,13.7353895 4.34540225,13.8463438 L4.34540225,23.7447355 L8.07171121,22.3266846 L12.6457713,29.2031487 L12.6457713,18.5064269 L16.9911735,20.9456186 L16.9911735,20.9456186 Z" id="Left" fill="#04B5A9" fill-rule="nonzero"></path>
                    <path d="M35.0785518,9.53666754 L18.0873783,19.0724321 C16.524545,18.1947915 12.5228956,15.9501261 11.0215984,15.1067965 L11.0215984,23.828125 L8.70766408,20.3509704 L5.96840746,21.392943 L5.96840746,12.2707169 C4.64809844,11.5303204 2.43913729,10.2897049 1.09620474,9.53666754 C2.87893865,8.53532647 15.9824853,1.18102264 18.0873783,0 L35.0785518,9.53666754 Z" id="Top" fill="#E56CB1" fill-rule="nonzero"></path>
                </g>
                <g id="Fachschaften.org" transform="translate(48.9801, 4.7968)" fill="#040021" fill-rule="nonzero">
                    <polygon id="Path" points="1.80113591 24 5.10916277 24 5.10916277 16.2426324 12.6971165 16.2426324 12.6971165 13.4695965 5.10916277 13.4695965 5.10916277 8.51201444 13.4996028 8.51201444 13.4996028 5.73897845 1.80113591 5.73897845"></polygon>
                    <path d="M19.8904405,24.2764119 C22.0393205,24.2764119 23.3232985,23.2688458 23.9117885,22.1186155 L24.0187867,22.1186155 L24.0187867,24 L27.1217337,24 L27.1217337,14.8338232 C27.1217337,11.2137183 24.1703674,10.1259036 21.5578287,10.1259036 C18.6777945,10.1259036 16.4664989,11.4098816 15.7531778,13.9065057 L18.7669597,14.3344984 C19.0879542,13.3982643 19.9974386,12.595778 21.5756617,12.595778 C23.0736361,12.595778 23.8939555,13.3625983 23.8939555,14.708992 L23.8939555,14.7624911 C23.8939555,15.6898086 22.9220554,15.7343911 20.50568,15.99297 C17.8485587,16.2782985 15.3073521,17.0718683 15.3073521,20.1569823 C15.3073521,22.8497696 17.2779017,24.2764119 19.8904405,24.2764119 Z M20.7285928,21.9046191 C19.3821992,21.9046191 18.4192156,21.2893796 18.4192156,20.1034832 C18.4192156,18.8640877 19.4981138,18.3469299 20.9425892,18.14185 C21.789658,18.0259353 23.4837958,17.811939 23.902872,17.4731114 L23.902872,19.0870006 C23.902872,20.6117245 22.672393,21.9046191 20.7285928,21.9046191 Z" id="Shape"></path>
                    <path d="M36.0537778,24.2674954 C39.4955523,24.2674954 41.6890149,22.2256136 41.9208443,19.3188299 L38.8357303,19.3188299 C38.5593183,20.7900548 37.4982531,21.6371237 36.0805273,21.6371237 C34.065395,21.6371237 32.7635839,19.9519025 32.7635839,17.1521169 C32.7635839,14.3879974 34.0921446,12.7295258 36.0805273,12.7295258 C37.6320008,12.7295258 38.5860679,13.7281754 38.8357303,15.0478195 L41.9208443,15.0478195 C41.6979314,12.0786202 39.3796376,10.1259036 36.0359447,10.1259036 C32.0235132,10.1259036 29.4912231,13.0237707 29.4912231,17.205616 C29.4912231,21.3517952 31.9610976,24.2674954 36.0537778,24.2674954 Z" id="Path"></path>
                    <path d="M47.5091955,15.975137 C47.5091955,13.9956708 48.7396745,12.854357 50.4694783,12.854357 C52.163616,12.854357 53.1622657,13.9332552 53.1622657,15.7789737 L53.1622657,24 L56.3900439,24 L56.3900439,15.2796489 C56.3900439,11.971622 54.5175758,10.1259036 51.6732077,10.1259036 C49.5689103,10.1259036 48.2314332,11.0799706 47.5983606,12.6314441 L47.4378634,12.6314441 L47.4378634,5.73897845 L44.2814173,5.73897845 L44.2814173,24 L47.5091955,24 L47.5091955,15.975137 Z" id="Path"></path>
                    <path d="M70.1994223,13.9243387 C69.7535966,11.6060449 67.8989616,10.1259036 64.6890164,10.1259036 C61.389906,10.1259036 59.1429444,11.7487092 59.1518609,14.2809993 C59.1429444,16.2782985 60.3734234,17.5979426 63.0037951,18.14185 L65.3399219,18.6322583 C66.5971504,18.9086703 67.1856404,19.4169116 67.1856404,20.1926483 C67.1856404,21.1288824 66.1691578,21.833287 64.6355173,21.833287 C63.1553759,21.833287 62.1923923,21.191298 61.9159804,19.960819 L58.7684508,20.2639805 C59.1696939,22.7784375 61.2829078,24.2674954 64.6444338,24.2674954 C68.0683753,24.2674954 70.4847507,22.4931091 70.4936673,19.8984034 C70.4847507,17.9456867 69.2275222,16.7508738 66.641733,16.1891334 L64.3056062,15.6898086 C62.91463,15.3777305 62.3618061,14.8962388 62.3707226,14.102669 C62.3618061,13.1753515 63.3872053,12.5333624 64.7335989,12.5333624 C66.2226568,12.5333624 67.0073101,13.3447653 67.2569725,14.2453332 L70.1994223,13.9243387 Z" id="Path"></path>
                    <path d="M78.8372208,24.2674954 C82.2789953,24.2674954 84.4724579,22.2256136 84.7042873,19.3188299 L81.6191733,19.3188299 C81.3427613,20.7900548 80.2816961,21.6371237 78.8639703,21.6371237 C76.8488381,21.6371237 75.547027,19.9519025 75.547027,17.1521169 C75.547027,14.3879974 76.8755876,12.7295258 78.8639703,12.7295258 C80.4154438,12.7295258 81.3695109,13.7281754 81.6191733,15.0478195 L84.7042873,15.0478195 C84.4813744,12.0786202 82.1630807,10.1259036 78.8193877,10.1259036 C74.8069563,10.1259036 72.2746662,13.0237707 72.2746662,17.205616 C72.2746662,21.3517952 74.7445407,24.2674954 78.8372208,24.2674954 Z" id="Path"></path>
                    <path d="M90.2926385,15.975137 C90.2926385,13.9956708 91.5231175,12.854357 93.2529213,12.854357 C94.947059,12.854357 95.9457087,13.9332552 95.9457087,15.7789737 L95.9457087,24 L99.1734869,24 L99.1734869,15.2796489 C99.1734869,11.971622 97.3010189,10.1259036 94.4566508,10.1259036 C92.3523533,10.1259036 91.0148762,11.0799706 90.3818037,12.6314441 L90.2213064,12.6314441 L90.2213064,5.73897845 L87.0648603,5.73897845 L87.0648603,24 L90.2926385,24 L90.2926385,15.975137 Z" id="Path"></path>
                    <path d="M106.099316,24.2764119 C108.248196,24.2764119 109.532174,23.2688458 110.120664,22.1186155 L110.227662,22.1186155 L110.227662,24 L113.330609,24 L113.330609,14.8338232 C113.330609,11.2137183 110.379243,10.1259036 107.766704,10.1259036 C104.88667,10.1259036 102.675375,11.4098816 101.962053,13.9065057 L104.975835,14.3344984 C105.29683,13.3982643 106.206314,12.595778 107.784537,12.595778 C109.282512,12.595778 110.102831,13.3625983 110.102831,14.708992 L110.102831,14.7624911 C110.102831,15.6898086 109.130931,15.7343911 106.714556,15.99297 C104.057434,16.2782985 101.516228,17.0718683 101.516228,20.1569823 C101.516228,22.8497696 103.486777,24.2764119 106.099316,24.2764119 Z M106.937469,21.9046191 C105.591075,21.9046191 104.628091,21.2893796 104.628091,20.1034832 C104.628091,18.8640877 105.70699,18.3469299 107.151465,18.14185 C107.998534,18.0259353 109.692671,17.811939 110.111748,17.4731114 L110.111748,19.0870006 C110.111748,20.6117245 108.881269,21.9046191 106.937469,21.9046191 Z" id="Shape"></path>
                    <path d="M123.225637,10.3042338 L120.381269,10.3042338 L120.381269,9.22533559 C120.381269,8.15535386 120.827095,7.5579474 122.030824,7.5579474 C122.539065,7.5579474 122.967058,7.67386208 123.234554,7.75411071 L123.885459,5.25748668 C123.466383,5.11482244 122.547982,4.88299307 121.433418,4.88299307 C119.052708,4.88299307 117.153491,6.24721978 117.153491,9.01133925 L117.153491,10.3042338 L115.129442,10.3042338 L115.129442,12.8008579 L117.153491,12.8008579 L117.153491,24 L120.381269,24 L120.381269,12.8008579 L123.225637,12.8008579 L123.225637,10.3042338 Z" id="Path"></path>
                    <path d="M132.300341,10.3042338 L129.598637,10.3042338 L129.598637,7.02295653 L126.370858,7.02295653 L126.370858,10.3042338 L124.427058,10.3042338 L124.427058,12.8008579 L126.370858,12.8008579 L126.370858,20.4155612 C126.353025,22.9924339 128.225493,24.2585789 130.650785,24.1872468 C131.569186,24.1604973 132.202259,23.982167 132.550003,23.8662523 L132.006096,21.3428787 C131.827765,21.3874613 131.462188,21.4677099 131.060945,21.4677099 C130.249542,21.4677099 129.598637,21.1823814 129.598637,19.8805703 L129.598637,12.8008579 L132.300341,12.8008579 L132.300341,10.3042338 Z" id="Path"></path>
                    <path d="M140.626057,24.2674954 C143.818169,24.2674954 146.011632,22.7071054 146.582289,20.3263961 L143.568507,19.9875685 C143.131597,21.1467154 142.061616,21.7530384 140.670639,21.7530384 C138.584175,21.7530384 137.202115,20.3798951 137.175366,18.0348518 L146.716036,18.0348518 L146.716036,17.0451187 C146.716036,12.2391175 143.827086,10.1259036 140.456643,10.1259036 C136.533377,10.1259036 133.974337,13.0059377 133.974337,17.2323656 C133.974337,21.5301255 136.497711,24.2674954 140.626057,24.2674954 Z M137.184282,15.8592223 C137.282364,14.1115855 138.575259,12.6403606 140.501226,12.6403606 C142.355861,12.6403606 143.604173,13.9956708 143.622006,15.8592223 L137.184282,15.8592223 Z" id="Shape"></path>
                    <path d="M152.37572,15.975137 C152.37572,13.9956708 153.570533,12.854357 155.273587,12.854357 C156.940975,12.854357 157.939625,13.9510882 157.939625,15.7789737 L157.939625,24 L161.167435,24 L161.167435,15.2796489 C161.17632,11.9983716 159.303852,10.1259036 156.477317,10.1259036 C154.426518,10.1259036 153.017709,11.1067201 152.393553,12.6314441 L152.233056,12.6314441 L152.233056,10.3042338 L149.147942,10.3042338 L149.147942,24 L152.37572,24 L152.37572,15.975137 Z" id="Path"></path>
                    <path d="M166.149432,24.1961633 C167.201581,24.1961633 168.102149,23.3223449 168.111065,22.2345301 C168.102149,21.1645484 167.201581,20.29073 166.149432,20.29073 C165.061617,20.29073 164.178883,21.1645484 164.187799,22.2345301 C164.178883,23.3223449 165.061617,24.1961633 166.149432,24.1961633 Z" id="Path"></path>
                    <path d="M177.132268,24.2674954 C181.144699,24.2674954 183.694822,21.4409604 183.694822,17.205616 C183.694822,12.9613551 181.144699,10.1259036 177.132268,10.1259036 C173.119836,10.1259036 170.569713,12.9613551 170.569713,17.205616 C170.569713,21.4409604 173.119836,24.2674954 177.132268,24.2674954 Z M177.150101,21.6817062 C174.929889,21.6817062 173.842074,19.70224 173.842074,17.1966995 C173.842074,14.6911589 174.929889,12.6849432 177.150101,12.6849432 C179.334647,12.6849432 180.422462,14.6911589 180.422462,17.1966995 C180.422462,19.70224 179.334647,21.6817062 177.150101,21.6817062 Z" id="Shape"></path>
                    <path d="M186.126728,24 L189.354507,24 L189.354507,15.9483875 C189.354507,14.2096672 190.665234,12.9791882 192.439621,12.9791882 C192.983528,12.9791882 193.661183,13.0772698 193.937595,13.166435 L193.937595,10.1972357 C193.64335,10.1437366 193.135109,10.1080705 192.778448,10.1080705 C191.209142,10.1080705 189.898414,10.999722 189.399089,12.5868615 L189.256425,12.5868615 L189.256425,10.3042338 L186.126728,10.3042338 L186.126728,24 Z" id="Path"></path>
                    <path d="M201.175497,29.4212408 C204.87585,29.4212408 207.604303,27.727103 207.604303,24.2229129 L207.604303,10.3042338 L204.421108,10.3042338 L204.421108,12.5690285 L204.242777,12.5690285 C203.752369,11.5792954 202.72697,10.1259036 200.310595,10.1259036 C197.145232,10.1259036 194.657524,12.6046946 194.657524,17.1075343 C194.657524,21.5747081 197.145232,23.8038367 200.301678,23.8038367 C202.646721,23.8038367 203.743453,22.5466081 204.242777,21.539042 L204.403275,21.539042 L204.403275,24.1337477 C204.403275,26.14888 203.065798,26.9781158 201.228996,26.9781158 C199.285195,26.9781158 198.42921,26.0597148 198.036883,25.2572285 L195.1301,25.9616332 C195.71859,27.8786838 197.689139,29.4212408 201.175497,29.4212408 Z M201.202246,21.2715466 C199.071199,21.2715466 197.947718,19.6130749 197.947718,17.0897013 C197.947718,14.6019938 199.053366,12.7741083 201.202246,12.7741083 C203.279794,12.7741083 204.421108,14.4949956 204.421108,17.0897013 C204.421108,19.70224 203.261961,21.2715466 201.202246,21.2715466 Z" id="Shape"></path>
                </g>
            </g>
            <g id="Ein-Dienst-von" transform="translate(0, 8)" fill="#040021" fill-rule="nonzero">
                <polygon id="Path" points="1.84943005 20 11.1860689 20 11.1860689 18.3593766 3.69886011 18.3593766 3.69886011 13.1690406 10.5894785 13.1690406 10.5894785 11.5284172 3.69886011 11.5284172 3.69886011 6.36791073 11.0667508 6.36791073 11.0667508 4.72728729 1.84943005 4.72728729"></polygon>
                <path d="M13.921001,20 L15.6809425,20 L15.6809425,8.54546547 L13.921001,8.54546547 L13.921001,20 Z M14.8158865,6.63637638 C15.5019654,6.63637638 16.0687262,6.09944507 16.0687262,5.4431957 C16.0687262,4.78694633 15.5019654,4.25001502 14.8158865,4.25001502 C14.1298076,4.25001502 13.5630468,4.78694633 13.5630468,5.4431957 C13.5630468,6.09944507 14.1298076,6.63637638 14.8158865,6.63637638 Z" id="Shape"></path>
                <path d="M20.414445,13.1093816 C20.414445,11.1108039 21.65237,9.97728229 23.3377377,9.97728229 C24.9709038,9.97728229 25.9627352,11.0436875 25.9627352,12.8409159 L25.9627352,20 L27.7226767,20 L27.7226767,12.7215979 C27.7226767,9.79830518 26.1640844,8.39631788 23.8448395,8.39631788 C22.1147275,8.39631788 21.0408649,9.17188533 20.5039336,10.3352365 L20.354786,10.3352365 L20.354786,8.54546547 L18.6545035,8.54546547 L18.6545035,20 L20.414445,20 L20.414445,13.1093816 Z" id="Path"></path>
                <path d="M41.306163,20 C45.9595676,20 48.5845651,17.1065369 48.5845651,12.3338141 C48.5845651,7.59092093 45.9595676,4.72728729 41.5149696,4.72728729 L36.5930993,4.72728729 L36.5930993,20 L41.306163,20 Z M38.4425293,18.3593766 L38.4425293,6.36791073 L41.3956515,6.36791073 C44.9751935,6.36791073 46.7947941,8.63495402 46.7947941,12.3338141 C46.7947941,16.0625038 44.9751935,18.3593766 41.1868449,18.3593766 L38.4425293,18.3593766 Z" id="Shape"></path>
                <path d="M51.2001816,20 L52.9601231,20 L52.9601231,8.54546547 L51.2001816,8.54546547 L51.2001816,20 Z M52.0950671,6.63637638 C52.781146,6.63637638 53.3479068,6.09944507 53.3479068,5.4431957 C53.3479068,4.78694633 52.781146,4.25001502 52.0950671,4.25001502 C51.4089882,4.25001502 50.8422274,4.78694633 50.8422274,5.4431957 C50.8422274,6.09944507 51.4089882,6.63637638 52.0950671,6.63637638 Z" id="Shape"></path>
                <path d="M60.7362363,20.2386361 C63.0629387,20.2386361 64.7632211,19.075285 65.3001524,17.345173 L63.59987,16.8679007 C63.1524272,18.0610814 62.1158515,18.6576717 60.7362363,18.6576717 C58.6705423,18.6576717 57.2461829,17.3228008 57.1641517,14.8693231 L65.4791295,14.8693231 L65.4791295,14.1235851 C65.4791295,9.85796422 62.9436206,8.39631788 60.5572592,8.39631788 C57.4549895,8.39631788 55.3967528,10.8423383 55.3967528,14.3622213 C55.3967528,17.8821043 57.42516,20.2386361 60.7362363,20.2386361 Z M57.1641517,13.3480177 C57.2834697,11.5657041 58.5437668,9.97728229 60.5572592,9.97728229 C62.4663483,9.97728229 63.6893585,11.4090991 63.6893585,13.3480177 L57.1641517,13.3480177 Z" id="Shape"></path>
                <path d="M69.6757077,13.1093816 C69.6757077,11.1108039 70.9136326,9.97728229 72.5990004,9.97728229 C74.2321664,9.97728229 75.2239978,11.0436875 75.2239978,12.8409159 L75.2239978,20 L76.9839394,20 L76.9839394,12.7215979 C76.9839394,9.79830518 75.4253471,8.39631788 73.1061021,8.39631788 C71.3759902,8.39631788 70.3021275,9.17188533 69.7651962,10.3352365 L69.6160487,10.3352365 L69.6160487,8.54546547 L67.9157662,8.54546547 L67.9157662,20 L69.6757077,20 L69.6757077,13.1093816 Z" id="Path"></path>
                <path d="M88.071136,11.1108039 C87.5192899,9.48509526 86.281365,8.39631788 84.0143217,8.39631788 C81.5981308,8.39631788 79.8083598,9.76847567 79.8083598,11.7073943 C79.8083598,13.2883587 80.7479895,14.3473065 82.8509705,14.8394936 L84.7600596,15.2869363 C85.9159534,15.555402 86.4603421,16.107248 86.4603421,16.8977302 C86.4603421,17.8821043 85.416309,18.6875013 83.7756855,18.6875013 C82.3364113,18.6875013 81.4340684,18.0685388 81.1208585,16.8380712 L79.4504056,17.2556844 C79.8605614,19.2020604 81.463898,20.2386361 83.805515,20.2386361 C86.4677994,20.2386361 88.2799426,18.7844472 88.2799426,16.8082417 C88.2799426,15.2123625 87.2806538,14.2056163 85.2373319,13.7059719 L83.5370494,13.2883587 C82.1798064,12.9527766 81.5683013,12.4978765 81.5683013,11.6179057 C81.5683013,10.6335317 82.6123344,9.91762325 84.0143217,9.91762325 C85.5505418,9.91762325 86.184419,10.7677645 86.4901716,11.5582467 L88.071136,11.1108039 Z" id="Path"></path>
                <path d="M95.6682779,8.54546547 L93.2222575,8.54546547 L93.2222575,5.8011499 L91.462316,5.8011499 L91.462316,8.54546547 L89.732204,8.54546547 L89.732204,10.0369413 L91.462316,10.0369413 L91.462316,17.1960254 C91.462316,19.194603 93.0731099,20.1491476 94.5645857,20.1491476 C95.2208351,20.1491476 95.6384483,20.0298295 95.8770845,19.940341 L95.5191303,18.3593766 C95.3699827,18.3892061 95.1313465,18.4488651 94.7435628,18.4488651 C93.9679954,18.4488651 93.2222575,18.210229 93.2222575,16.7187531 L93.2222575,10.0369413 L95.6682779,10.0369413 L95.6682779,8.54546547 Z" id="Path"></path>
                <polygon id="Path" points="113.099767 8.54546547 111.190678 8.54546547 108.028749 17.6732977 107.909431 17.6732977 104.747503 8.54546547 102.838414 8.54546547 107.074205 20 108.863976 20"></polygon>
                <path d="M119.41424,20.2386361 C122.51651,20.2386361 124.604576,17.8821043 124.604576,14.3323918 C124.604576,10.7528497 122.51651,8.39631788 119.41424,8.39631788 C116.311971,8.39631788 114.223904,10.7528497 114.223904,14.3323918 C114.223904,17.8821043 116.311971,20.2386361 119.41424,20.2386361 Z M119.41424,18.6576717 C117.057708,18.6576717 115.983846,16.6292646 115.983846,14.3323918 C115.983846,12.035519 117.057708,9.97728229 119.41424,9.97728229 C121.770772,9.97728229 122.844635,12.035519 122.844635,14.3323918 C122.844635,16.6292646 121.770772,18.6576717 119.41424,18.6576717 Z" id="Shape"></path>
                <path d="M128.801155,13.1093816 C128.801155,11.1108039 130.03908,9.97728229 131.724447,9.97728229 C133.357613,9.97728229 134.349445,11.0436875 134.349445,12.8409159 L134.349445,20 L136.109386,20 L136.109386,12.7215979 C136.109386,9.79830518 134.550794,8.39631788 132.231549,8.39631788 C130.501437,8.39631788 129.427575,9.17188533 128.890643,10.3352365 L128.741496,10.3352365 L128.741496,8.54546547 L127.041213,8.54546547 L127.041213,20 L128.801155,20 L128.801155,13.1093816 Z" id="Path"></path>
            </g>
        </g>
    </g>
</svg>
